<svg id="Capa_1" enable-background="new 0 0 512 512" height="512" viewBox="0 0 512 512" width="512" xmlns="http://www.w3.org/2000/svg"><g><g><path d="m455.191 311.294h-233.51c-23.501 0-42.552 19.051-42.552 42.552 0 23.501 19.051 42.552 42.552 42.552h233.51c23.501 0 42.552-19.051 42.552-42.552 0-23.501-19.051-42.552-42.552-42.552z" fill="#ed9b83"/><path d="m203.705 268.741 110.739 82.14c14.249 10.569 33.735 10.569 47.984 0l110.739-82.14z" fill="#60d9a7"/><path d="m396.192 147.093h-115.511c-56.085 0-101.552 45.466-101.552 101.552v20.45c0 23.305 18.893 42.198 42.198 42.198h234.218c23.305 0 42.198-18.893 42.198-42.198v-20.45c0-56.086-45.466-101.552-101.551-101.552z" fill="#f8d070"/><path d="m470.598 396.398h-264.323c-14.992 0-27.146 12.154-27.146 27.146 0 29.833 24.185 54.018 54.018 54.018h210.579c29.833 0 54.018-24.185 54.018-54.018-.001-14.992-12.154-27.146-27.146-27.146z" fill="#f8d070"/><path d="m122.566 232.663h-46.706l-23.353 56.881 23.353 56.881h46.706l23.353-56.881z" fill="#f9ed80"/><path d="m235.978 274.015c0-46.076 7.22-89 25.252-125.053-46.78 9.075-82.101 50.251-82.101 99.683v20.451c0 21.972 15.145 41.36 36.597 43.353 1.301.121 4.268-1.155 5.601-1.155h17.81c-2.067-12.138-3.159-24.587-3.159-37.279z" fill="#f2c13b"/><path d="m272.78 396.398h-66.505c-14.992 0-27.146 12.153-27.146 27.146 0 29.833 24.185 54.018 54.018 54.018h130.443c-37.166-19.112-68.491-47.182-90.81-81.164z" fill="#f2c13b"/><path d="m239.137 311.294h-17.456c-23.501 0-42.552 19.051-42.552 42.552 0 23.501 19.051 42.552 42.552 42.552h51.098c-16.729-25.471-28.389-54.263-33.642-85.104z" fill="#e7886e"/><path d="m197.297 232.663h-28.025l-23.353 56.881 23.353 56.881h46.706v-95.082c0-10.317-8.364-18.68-18.681-18.68z" fill="#f9ed80"/><circle cx="428.648" cy="110.29" fill="#ff889e" r="75.852"/><path d="m439.254 110.29 25.741-25.741c2.929-2.929 2.929-7.677 0-10.606-2.928-2.929-7.677-2.929-10.606 0l-25.741 25.741-25.741-25.741c-2.929-2.929-7.678-2.929-10.606 0-2.929 2.929-2.929 7.678 0 10.606l25.741 25.741-25.742 25.741c-2.929 2.929-2.929 7.677 0 10.606 2.928 2.928 7.677 2.928 10.606 0l25.741-25.741 25.741 25.741c2.928 2.928 7.678 2.929 10.606 0 2.929-2.929 2.929-7.678 0-10.606z" fill="#fff"/><path d="m47.835 232.663c-10.317 0-18.681 8.364-18.681 18.681v95.082h46.706v-113.763z" fill="#f8d070"/><path d="m122.566 232.663h46.706v113.762h-46.706z" fill="#f8d070"/><path d="m237.223 346.756c-.581-11.087-9.738-19.774-20.84-19.774h-187.634c-11.103 0-20.259 8.686-20.84 19.774-1.15 21.954-.597 59.193 11.429 96.187 6.73 20.701 26.159 34.619 47.927 34.619h110.603c21.768 0 41.197-13.918 47.927-34.619 12.026-36.994 12.579-74.234 11.428-96.187z" fill="#ff889e"/><path d="m40.154 380.205c0-18.874 4.131-36.856 11.6-53.223h-23.005c-11.103 0-20.259 8.686-20.84 19.773-1.15 21.954-.597 59.193 11.429 96.187 6.73 20.702 26.159 34.62 47.927 34.62h16.795c-27.115-24.861-43.906-59.298-43.906-97.357z" fill="#ff748f"/></g><g><path d="m61.02 383.785c-4.142 0-7.5 3.358-7.5 7.5v11.828c0 4.142 3.358 7.5 7.5 7.5s7.5-3.357 7.5-7.5v-11.828c0-4.141-3.358-7.5-7.5-7.5z"/><path d="m184.127 383.785c-4.142 0-7.5 3.358-7.5 7.5v11.828c0 4.142 3.358 7.5 7.5 7.5s7.5-3.357 7.5-7.5v-11.828c0-4.141-3.358-7.5-7.5-7.5z"/><path d="m143.729 397.107c-3.122-2.721-7.86-2.396-10.581.727-2.669 3.063-6.524 4.82-10.574 4.82s-7.904-1.757-10.574-4.82c-2.721-3.123-7.459-3.448-10.581-.727-3.123 2.721-3.448 7.459-.727 10.581 5.519 6.333 13.495 9.965 21.882 9.965 8.388 0 16.363-3.632 21.882-9.965 2.721-3.122 2.396-7.859-.727-10.581z"/><path d="m263.939 238.501v-15.757c0-4.142-3.358-7.5-7.5-7.5s-7.5 3.358-7.5 7.5v15.757c0 4.142 3.358 7.5 7.5 7.5 4.142-.001 7.5-3.358 7.5-7.5z"/><path d="m427.939 238.501v-15.757c0-4.142-3.358-7.5-7.5-7.5s-7.5 3.358-7.5 7.5v15.757c0 4.142 3.358 7.5 7.5 7.5 4.142-.001 7.5-3.358 7.5-7.5z"/><path d="m338.439 255.38c10.453 0 20.394-4.528 27.273-12.422 2.721-3.122 2.396-7.86-.727-10.581-3.122-2.722-7.86-2.396-10.581.727-4.03 4.624-9.848 7.276-15.965 7.276-6.116 0-11.935-2.652-15.965-7.277-2.721-3.123-7.459-3.448-10.582-.727-3.122 2.722-3.448 7.459-.727 10.582 6.881 7.894 16.821 12.422 27.274 12.422z"/><path d="m212.988 172.595c-2.975-2.883-7.723-2.809-10.605.166-14.215 14.667-23.869 32.68-28.188 52.402-40.765 0-88.764 0-126.351 0-14.436 0-26.181 11.744-26.181 26.181v69.037c-11.729 3.02-20.573 13.352-21.234 25.981-1.29 24.61-.292 61.745 11.786 98.896 7.739 23.806 29.865 39.801 55.058 39.801h110.601c9.77 0 19.074-2.415 27.261-6.748 8.638 4.423 18.233 6.748 28.017 6.748h210.575c33.921 0 61.517-27.597 61.517-61.517 0-13.349-7.594-24.951-18.684-30.734 11.383-9.182 18.684-23.233 18.684-38.963 0-17.897-9.448-33.621-23.613-42.471 14.158-8.767 23.613-24.437 23.613-42.278v-20.45c0-26.649-9.449-51.73-26.776-71.567 20.341-15.215 33.532-39.489 33.532-66.786 0-45.96-37.391-83.35-83.351-83.35s-83.35 37.391-83.35 83.35c0 10.309 1.895 20.181 5.332 29.303h-69.945c-18.328 0-36.472 4.651-52.47 13.449-3.629 1.996-4.954 6.557-2.957 10.186 1.996 3.629 6.557 4.954 10.186 2.957 13.789-7.584 29.434-11.593 45.241-11.593h77.367c15.481 24.634 42.441 39.049 70.596 39.049h.001c12.749 0 25.436-2.958 36.837-8.586 16.005 17.387 24.757 39.764 24.757 63.588v20.45c0 19.132-15.565 34.698-34.698 34.698h-.354c-10.412 0-221.992 0-231.709 0v-52.449c0-14.436-11.744-26.181-26.18-26.181h-7.713c4.032-15.742 12.079-30.113 23.564-41.963 2.883-2.975 2.809-7.724-.166-10.606zm215.661-130.653c37.689 0 68.351 30.662 68.351 68.351 0 37.976-30.965 68.351-68.351 68.351h-.001c-37.179 0-68.35-30.131-68.35-68.351 0-37.689 30.662-68.351 68.351-68.351zm-266.87 277.538h-31.705v-79.318h31.705zm-46.705 0h-31.705v-79.318h31.705zm-78.411-68.136c0-6.165 5.016-11.181 11.181-11.181h20.525v79.318h-31.706zm30.61 218.714c-18.676 0-35.069-11.83-40.793-29.438-11.367-34.965-12.295-70.131-11.072-93.474.372-7.102 6.236-12.666 13.35-12.666h.405 187.226c7.108 0 12.978 5.567 13.35 12.665.016.31.051.949.106 2.179 1.352 30.4-1.88 62.704-11.178 91.296-5.508 16.953-21.59 29.438-40.793 29.438zm325.828-151.265-35.138 26.063c-11.678 8.662-27.369 8.661-39.047 0l-35.138-26.062h109.323zm-134.501 0 51.38 38.11c17.023 12.625 39.896 12.627 56.919 0l51.38-38.11h36.913c19.327 0 35.052 15.724 35.052 35.052 0 19.327-15.724 35.052-35.052 35.052h-40.347c-4.142 0-7.5 3.358-7.5 7.5s3.358 7.5 7.5 7.5h40.347 15.406c10.832 0 19.645 8.813 19.645 19.646 0 25.649-20.867 46.517-46.517 46.517h-210.574c-4.782 0-9.502-.732-14.005-2.152 8.374-8.47 12.107-16.729 15.448-28.021 3.628-12.212 6.11-24.357 7.745-35.99h142.506c4.142 0 7.5-3.358 7.5-7.5s-3.358-7.5-7.5-7.5h-140.813c1.233-14.296 1.302-27.415.872-38.407-.1-2.621-.185-4.054-.189-4.158-.671-12.602-9.534-22.943-21.232-25.956v-1.582h35.116zm-61.297-78.63c6.165 0 11.18 5.016 11.18 11.181v68.137h-31.705v-79.318z"/></g></g></svg>